<svg viewBox="0 0 780 400" xmlns="http://www.w3.org/2000/svg" font-family="-apple-system, BlinkMacSystemFont, 'Segoe UI', Roboto, sans-serif">
  <defs>
    <marker id="arrow" markerWidth="8" markerHeight="8" refX="6" refY="3" orient="auto">
      <path d="M0,0 L0,6 L8,3 z" fill="#9CA3AF"/>
    </marker>
  </defs>

  <!-- Background -->
  <rect width="780" height="400" fill="#111827" rx="10"/>

  <!-- ===== LEFT COLUMN: civitas ===== -->
  <rect x="16" y="16" width="210" height="368" fill="#1F2937" rx="8" stroke="#1D4ED8" stroke-width="1.5"/>
  <text x="121" y="36" text-anchor="middle" fill="#60A5FA" font-size="11" font-weight="600" letter-spacing="0.5">civitas</text>

  <!-- Runtime group label -->
  <text x="121" y="56" text-anchor="middle" fill="#9CA3AF" font-size="9.5" font-weight="500">Runtime</text>

  <rect x="30" y="62" width="188" height="28" fill="#1E3A5F" rx="5"/>
  <text x="124" y="80" text-anchor="middle" fill="#E5E7EB" font-size="10.5">Runtime</text>

  <rect x="30" y="96" width="188" height="28" fill="#1E3A5F" rx="5"/>
  <text x="124" y="114" text-anchor="middle" fill="#E5E7EB" font-size="10.5">Supervisor</text>

  <rect x="30" y="130" width="188" height="28" fill="#1E3A5F" rx="5"/>
  <text x="124" y="148" text-anchor="middle" fill="#E5E7EB" font-size="10.5">MessageBus</text>

  <!-- Protocols group label -->
  <text x="121" y="180" text-anchor="middle" fill="#9CA3AF" font-size="9.5" font-weight="500">Protocols</text>

  <rect x="30" y="186" width="188" height="28" fill="#1E3A5F" rx="5"/>
  <text x="124" y="204" text-anchor="middle" fill="#E5E7EB" font-size="10.5">ModelProvider</text>

  <rect x="30" y="220" width="188" height="28" fill="#1E3A5F" rx="5"/>
  <text x="124" y="238" text-anchor="middle" fill="#E5E7EB" font-size="10.5">ToolProvider</text>

  <rect x="30" y="254" width="188" height="28" fill="#1E3A5F" rx="5"/>
  <text x="124" y="272" text-anchor="middle" fill="#E5E7EB" font-size="10.5">AuditSink</text>

  <rect x="30" y="288" width="188" height="28" fill="#1E3A5F" rx="5"/>
  <text x="124" y="306" text-anchor="middle" fill="#E5E7EB" font-size="10.5">StateStore</text>

  <rect x="30" y="322" width="188" height="28" fill="#1E3A5F" rx="5"/>
  <text x="124" y="340" text-anchor="middle" fill="#E5E7EB" font-size="10.5">OTEL · Transport</text>

  <!-- ===== CENTER COLUMN: presidium core ===== -->
  <rect x="246" y="16" width="230" height="368" fill="#1F2937" rx="8" stroke="#7C3AED" stroke-width="1.5" stroke-dasharray="6,3"/>
  <text x="361" y="36" text-anchor="middle" fill="#A78BFA" font-size="11" font-weight="600" letter-spacing="0.5">presidium (core)</text>

  <!-- Protocols sub-group -->
  <rect x="258" y="44" width="206" height="168" fill="#111827" rx="6" stroke="#6D28D9" stroke-width="1"/>
  <text x="361" y="60" text-anchor="middle" fill="#A78BFA" font-size="9.5" font-weight="500">Protocols</text>

  <rect x="268" y="66" width="186" height="24" fill="#2D1B69" rx="4"/>
  <text x="361" y="82" text-anchor="middle" fill="#E5E7EB" font-size="10">PolicyEngine</text>

  <rect x="268" y="96" width="186" height="24" fill="#2D1B69" rx="4"/>
  <text x="361" y="112" text-anchor="middle" fill="#E5E7EB" font-size="10">AgentRegistry</text>

  <rect x="268" y="126" width="186" height="24" fill="#2D1B69" rx="4"/>
  <text x="361" y="142" text-anchor="middle" fill="#E5E7EB" font-size="10">CredentialProvider</text>

  <rect x="268" y="156" width="186" height="24" fill="#2D1B69" rx="4"/>
  <text x="361" y="172" text-anchor="middle" fill="#E5E7EB" font-size="10">TrustScorer · ApprovalService</text>

  <rect x="268" y="186" width="186" height="20" fill="#2D1B69" rx="4"/>
  <text x="361" y="200" text-anchor="middle" fill="#E5E7EB" font-size="10">AuditEnricher · GovernedModelProvider</text>

  <!-- Defaults sub-group -->
  <rect x="258" y="224" width="206" height="148" fill="#111827" rx="6" stroke="#6D28D9" stroke-width="1"/>
  <text x="361" y="240" text-anchor="middle" fill="#A78BFA" font-size="9.5" font-weight="500">Defaults</text>

  <rect x="268" y="246" width="186" height="24" fill="#2D1B69" rx="4"/>
  <text x="361" y="262" text-anchor="middle" fill="#E5E7EB" font-size="10">CelPolicyEngine</text>

  <rect x="268" y="276" width="186" height="24" fill="#2D1B69" rx="4"/>
  <text x="361" y="292" text-anchor="middle" fill="#E5E7EB" font-size="10">InMemoryRegistry · SqliteRegistry</text>

  <rect x="268" y="306" width="186" height="24" fill="#2D1B69" rx="4"/>
  <text x="361" y="322" text-anchor="middle" fill="#E5E7EB" font-size="10">EnvCredentialProvider</text>

  <rect x="268" y="336" width="186" height="24" fill="#2D1B69" rx="4"/>
  <text x="361" y="352" text-anchor="middle" fill="#E5E7EB" font-size="10">RuleBasedTrustScorer · CallbackApproval</text>

  <!-- Arrow: Defaults → Protocols (internal) -->
  <line x1="361" y1="224" x2="361" y2="214" stroke="#6D28D9" stroke-width="1.2" marker-end="url(#arrow)"/>

  <!-- Arrow: Protocols → civitas -->
  <line x1="258" y1="140" x2="226" y2="140" stroke="#9CA3AF" stroke-width="1.5" marker-end="url(#arrow)"/>

  <!-- Arrow: Defaults → civitas -->
  <line x1="258" y1="300" x2="236" y2="300" stroke="#9CA3AF" stroke-width="1.2" stroke-dasharray="4,3"/>
  <line x1="236" y1="300" x2="236" y2="310" stroke="#9CA3AF" stroke-width="1.2" stroke-dasharray="4,3"/>
  <line x1="236" y1="310" x2="226" y2="310" stroke="#9CA3AF" stroke-width="1.2" stroke-dasharray="4,3" marker-end="url(#arrow)"/>

  <!-- ===== RIGHT COLUMN: presidium-contrib ===== -->
  <rect x="496" y="16" width="268" height="368" fill="#1F2937" rx="8" stroke="#7C3AED" stroke-width="1.5"/>
  <text x="630" y="36" text-anchor="middle" fill="#A78BFA" font-size="11" font-weight="600" letter-spacing="0.5">presidium-contrib</text>

  <!-- Adapters sub-group -->
  <rect x="508" y="44" width="244" height="188" fill="#111827" rx="6" stroke="#5B21B6" stroke-width="1"/>
  <text x="630" y="60" text-anchor="middle" fill="#A78BFA" font-size="9.5" font-weight="500">Adapters (existing products)</text>

  <rect x="518" y="66" width="224" height="24" fill="#3B1F6E" rx="4"/>
  <text x="630" y="82" text-anchor="middle" fill="#E5E7EB" font-size="10">OPA PolicyEngine</text>

  <rect x="518" y="96" width="224" height="24" fill="#3B1F6E" rx="4"/>
  <text x="630" y="112" text-anchor="middle" fill="#E5E7EB" font-size="10">Cedar PolicyEngine</text>

  <rect x="518" y="126" width="224" height="24" fill="#3B1F6E" rx="4"/>
  <text x="630" y="142" text-anchor="middle" fill="#E5E7EB" font-size="10">HashiCorp Vault CredentialProvider</text>

  <rect x="518" y="156" width="224" height="24" fill="#3B1F6E" rx="4"/>
  <text x="630" y="172" text-anchor="middle" fill="#E5E7EB" font-size="10">LiteLLM GovernedModelProvider</text>

  <rect x="518" y="186" width="224" height="24" fill="#3B1F6E" rx="4"/>
  <text x="630" y="202" text-anchor="middle" fill="#E5E7EB" font-size="10">Slack ApprovalService</text>

  <rect x="518" y="216" width="224" height="10" fill="none"/>
  <text x="630" y="224" text-anchor="middle" fill="#9CA3AF" font-size="9.5">Temporal ApprovalService</text>

  <!-- Reference Impls sub-group -->
  <rect x="508" y="244" width="244" height="124" fill="#111827" rx="6" stroke="#B45309" stroke-width="1"/>
  <text x="630" y="260" text-anchor="middle" fill="#FCD34D" font-size="9.5" font-weight="500">Reference Impls (novel)</text>

  <rect x="518" y="266" width="224" height="28" fill="#451A03" rx="4"/>
  <text x="630" y="278" text-anchor="middle" fill="#E5E7EB" font-size="10">PostgresRegistry</text>
  <text x="630" y="290" text-anchor="middle" fill="#9CA3AF" font-size="8.5">AgentRegistry with grants + trust scores</text>

  <rect x="518" y="300" width="224" height="28" fill="#451A03" rx="4"/>
  <text x="630" y="312" text-anchor="middle" fill="#E5E7EB" font-size="10">MCPGovernance</text>
  <text x="630" y="324" text-anchor="middle" fill="#9CA3AF" font-size="8.5">GovernedToolProvider + poisoning detection</text>

  <rect x="518" y="334" width="224" height="28" fill="#451A03" rx="4"/>
  <text x="630" y="346" text-anchor="middle" fill="#E5E7EB" font-size="10">LearningTrustScorer</text>
  <text x="630" y="358" text-anchor="middle" fill="#9CA3AF" font-size="8.5">TrustScorer with historical learning</text>

  <!-- Arrow: Adapters → Protocols -->
  <line x1="508" y1="140" x2="476" y2="140" stroke="#9CA3AF" stroke-width="1.5" marker-end="url(#arrow)"/>

  <!-- Arrow: RefImpls → Protocols -->
  <line x1="508" y1="310" x2="490" y2="310" stroke="#9CA3AF" stroke-width="1.2"/>
  <line x1="490" y1="310" x2="490" y2="160" stroke="#9CA3AF" stroke-width="1.2"/>
  <line x1="490" y1="160" x2="476" y2="160" stroke="#9CA3AF" stroke-width="1.2" marker-end="url(#arrow)"/>
</svg>
