<svg viewBox="0 0 780 520" xmlns="http://www.w3.org/2000/svg" font-family="-apple-system, BlinkMacSystemFont, 'Segoe UI', Roboto, sans-serif">
  <defs>
    <marker id="arrow" markerWidth="8" markerHeight="8" refX="6" refY="3" orient="auto">
      <path d="M0,0 L0,6 L8,3 z" fill="#9CA3AF"/>
    </marker>
  </defs>

  <!-- Background -->
  <rect width="780" height="520" fill="#111827" rx="10"/>

  <!-- External Consumers row -->
  <rect x="20" y="20" width="740" height="80" fill="#1F2937" rx="8" stroke="#374151" stroke-width="1"/>
  <text x="390" y="38" text-anchor="middle" fill="#9CA3AF" font-size="11" font-weight="500">External Consumers</text>
  <!-- Fiddler -->
  <rect x="50" y="46" width="130" height="40" fill="#374151" rx="6"/>
  <text x="115" y="71" text-anchor="middle" fill="#E5E7EB" font-size="13" font-weight="500">Fiddler</text>
  <!-- Arize -->
  <rect x="210" y="46" width="130" height="40" fill="#374151" rx="6"/>
  <text x="275" y="71" text-anchor="middle" fill="#E5E7EB" font-size="13" font-weight="500">Arize</text>
  <!-- Langfuse -->
  <rect x="370" y="46" width="130" height="40" fill="#374151" rx="6"/>
  <text x="435" y="71" text-anchor="middle" fill="#E5E7EB" font-size="13" font-weight="500">Langfuse</text>
  <!-- Datadog -->
  <rect x="530" y="46" width="130" height="40" fill="#374151" rx="6"/>
  <text x="595" y="71" text-anchor="middle" fill="#E5E7EB" font-size="13" font-weight="500">Datadog</text>

  <!-- Arrow: Core → External (OTEL + audit) -->
  <line x1="390" y1="126" x2="390" y2="110" stroke="#9CA3AF" stroke-width="1.5" marker-end="url(#arrow)" stroke-dasharray="4,3"/>
  <text x="400" y="120" fill="#9CA3AF" font-size="10">OTEL + audit</text>

  <!-- PRESIDIUM governance layer -->
  <rect x="20" y="126" width="740" height="190" fill="#1F2937" rx="8" stroke="#7C3AED" stroke-width="1.5"/>
  <text x="390" y="144" text-anchor="middle" fill="#A78BFA" font-size="11" font-weight="600" letter-spacing="0.5">PRESIDIUM — Governance Layer</text>

  <!-- presidium core sub-container -->
  <rect x="36" y="152" width="340" height="148" fill="#111827" rx="6" stroke="#6D28D9" stroke-width="1" stroke-dasharray="5,3"/>
  <text x="206" y="168" text-anchor="middle" fill="#A78BFA" font-size="10" font-weight="500">presidium (core)</text>

  <!-- Protocols block -->
  <rect x="50" y="174" width="148" height="112" fill="#2D1B69" rx="6"/>
  <text x="124" y="192" text-anchor="middle" fill="#E5E7EB" font-size="12" font-weight="600">Protocols</text>
  <text x="124" y="210" text-anchor="middle" fill="#9CA3AF" font-size="9.5">PolicyEngine</text>
  <text x="124" y="224" text-anchor="middle" fill="#9CA3AF" font-size="9.5">AgentRegistry</text>
  <text x="124" y="238" text-anchor="middle" fill="#9CA3AF" font-size="9.5">CredentialProvider</text>
  <text x="124" y="252" text-anchor="middle" fill="#9CA3AF" font-size="9.5">TrustScorer</text>
  <text x="124" y="266" text-anchor="middle" fill="#9CA3AF" font-size="9.5">ApprovalService · AuditEnricher</text>

  <!-- Defaults block -->
  <rect x="214" y="174" width="148" height="112" fill="#2D1B69" rx="6"/>
  <text x="288" y="192" text-anchor="middle" fill="#E5E7EB" font-size="12" font-weight="600">Defaults</text>
  <text x="288" y="210" text-anchor="middle" fill="#9CA3AF" font-size="9.5">CelPolicyEngine</text>
  <text x="288" y="224" text-anchor="middle" fill="#9CA3AF" font-size="9.5">InMemoryRegistry</text>
  <text x="288" y="238" text-anchor="middle" fill="#9CA3AF" font-size="9.5">EnvCredentialProvider</text>
  <text x="288" y="252" text-anchor="middle" fill="#9CA3AF" font-size="9.5">RuleBasedTrustScorer</text>
  <text x="288" y="266" text-anchor="middle" fill="#9CA3AF" font-size="9.5">CallbackApprovalProvider</text>

  <!-- presidium-contrib sub-container -->
  <rect x="400" y="152" width="344" height="148" fill="#111827" rx="6" stroke="#7C3AED" stroke-width="1"/>
  <text x="572" y="168" text-anchor="middle" fill="#A78BFA" font-size="10" font-weight="500">presidium-contrib</text>

  <!-- Adapters block -->
  <rect x="414" y="174" width="148" height="112" fill="#3B1F6E" rx="6"/>
  <text x="488" y="192" text-anchor="middle" fill="#E5E7EB" font-size="12" font-weight="600">Adapters</text>
  <text x="488" y="210" text-anchor="middle" fill="#9CA3AF" font-size="9.5">OPA · Cedar</text>
  <text x="488" y="224" text-anchor="middle" fill="#9CA3AF" font-size="9.5">HashiCorp Vault</text>
  <text x="488" y="238" text-anchor="middle" fill="#9CA3AF" font-size="9.5">LiteLLM Proxy</text>
  <text x="488" y="252" text-anchor="middle" fill="#9CA3AF" font-size="9.5">Slack</text>
  <text x="488" y="266" text-anchor="middle" fill="#9CA3AF" font-size="9.5">Temporal</text>

  <!-- Reference Impls block -->
  <rect x="578" y="174" width="150" height="112" fill="#3B1F6E" rx="6"/>
  <text x="653" y="192" text-anchor="middle" fill="#E5E7EB" font-size="12" font-weight="600">Reference Impls</text>
  <text x="653" y="210" text-anchor="middle" fill="#9CA3AF" font-size="9.5">PostgresRegistry</text>
  <text x="653" y="224" text-anchor="middle" fill="#9CA3AF" font-size="9.5">MCPGovernance</text>
  <text x="653" y="238" text-anchor="middle" fill="#9CA3AF" font-size="9.5">LearningTrustScorer</text>

  <!-- Arrow: Contrib → Core -->
  <line x1="400" y1="228" x2="376" y2="228" stroke="#9CA3AF" stroke-width="1.5" marker-end="url(#arrow)"/>

  <!-- Arrow: Core → Civitas -->
  <line x1="206" y1="316" x2="206" y2="336" stroke="#9CA3AF" stroke-width="1.5" marker-end="url(#arrow)"/>
  <line x1="206" y1="336" x2="390" y2="336" stroke="#9CA3AF" stroke-width="1.5"/>
  <line x1="390" y1="336" x2="390" y2="352" stroke="#9CA3AF" stroke-width="1.5" marker-end="url(#arrow)"/>

  <!-- CIVITAS runtime layer -->
  <rect x="20" y="352" width="740" height="80" fill="#1F2937" rx="8" stroke="#1D4ED8" stroke-width="1.5"/>
  <text x="390" y="370" text-anchor="middle" fill="#60A5FA" font-size="11" font-weight="600" letter-spacing="0.5">CIVITAS — Runtime Layer</text>
  <rect x="50" y="376" width="680" height="40" fill="#1E3A5F" rx="6"/>
  <text x="390" y="391" text-anchor="middle" fill="#E5E7EB" font-size="11" font-weight="500">Runtime · Supervisor · MessageBus · AgentProcess · Registry · Transport</text>
  <text x="390" y="407" text-anchor="middle" fill="#9CA3AF" font-size="10">StateStore · OTEL · Plugins · AuditSink</text>

  <!-- Arrow: Civitas → Frameworks -->
  <line x1="390" y1="432" x2="390" y2="448" stroke="#9CA3AF" stroke-width="1.5" marker-end="url(#arrow)"/>

  <!-- Frameworks label + boxes -->
  <text x="390" y="462" text-anchor="middle" fill="#9CA3AF" font-size="10" font-weight="500">Agent Frameworks</text>
  <rect x="50" y="466" width="140" height="34" fill="#374151" rx="6"/>
  <text x="120" y="488" text-anchor="middle" fill="#E5E7EB" font-size="12">LangGraph</text>
  <rect x="210" y="466" width="140" height="34" fill="#374151" rx="6"/>
  <text x="280" y="488" text-anchor="middle" fill="#E5E7EB" font-size="12">CrewAI</text>
  <rect x="370" y="466" width="140" height="34" fill="#374151" rx="6"/>
  <text x="440" y="488" text-anchor="middle" fill="#E5E7EB" font-size="12">OpenAI SDK</text>
  <rect x="530" y="466" width="140" height="34" fill="#374151" rx="6"/>
  <text x="600" y="488" text-anchor="middle" fill="#E5E7EB" font-size="12">Custom</text>
</svg>
